Ong.Bak.2003.BRrip.720p.[Triple.Audio].[Eng-Hindi-Thai]~MSBHATTI [First On Net]

IMDB:- http://www.imdb.com/title/tt0368909/

PLOT:- When the head of a statue sacred to a village is stolen, a young martial artist goes to the big city and finds himself taking on the underworld to retrieve it.

Director: Prachya Pinkaew
Writers: Prachya Pinkaew (story), Panna Rittikrai (story), and 1 more credit »
Stars: Tony Jaa, Petchtai Wongkamlao and Pumwaree Yodkamol

INFO:-

General
Complete name : Ong.Bak.2003.BRrip.720p.[Triple.Audio].[Eng-Hindi-Thai]~MSBHATTI
Format : Matroska
File size : 1.74 GiB
Duration : 1h 40mn
Overall bit rate : 2 476 Kbps
Encoded date : UTC 2011-06-18 15:56:01
Writing application : mkvmerge v3.3.0 ('Language') built on Mar 24 2010 14:59:24
Writing library : libebml v0.8.0 + libmatroska v0.9.0

Video
ID : 1
Format : AVC
Format/Info : Advanced Video Codec
Format profile : High@L4.1
Format settings, CABAC : Yes
Format settings, ReFrames : 3 frames
Codec ID : V_MPEG4/ISO/AVC
Duration : 1h 40mn
Bit rate : 1 640 Kbps
Width : 1 280 pixels
Height : 688 pixels
Display aspect ratio : 1.860
Frame rate : 25.000 fps
Original frame rate : 24.000 fps
Color space : YUV
Chroma subsampling : 4:2:0
Bit depth : 8 bits
Scan type : Progressive
Bits/(Pixel*Frame) : 0.074
Stream size : 1.16 GiB (67%)
Writing library : x264 core 67 r1148M 400740b
Encoding settings : cabac=1 / ref=3 / deblock=1:0:0 / analyse=0x3:0x113 / me=umh / subme=7 / psy_rd=1.0:0.0 / mixed_ref=1 / me_range=16 / chroma_me=1 / trellis=2 / 8x8dct=1 / cqm=0 / deadzone=21,11 / chroma_qp_offset=-2 / threads=3 / nr=0 / decimate=1 / mbaff=0 / bframes=3 / b_pyramid=0 / b_adapt=2 / b_bias=0 / direct=1 / wpredb=1 / keyint=250 / keyint_min=25 / scenecut=40 / rc=2pass / bitrate=1640 / ratetol=1.0 / qcomp=0.50 / qpmin=10 / qpmax=51 / qpstep=4 / cplxblur=20.0 / qblur=0.5 / ip_ratio=1.10 / pb_ratio=1.10 / aq=1:1.00

Audio #1
ID : 2
Format : MPEG Audio
Format version : Version 1
Format profile : Layer 3
Codec ID : A_MPEG/L3
Codec ID/Hint : MP3
Duration : 1h 40mn
Bit rate mode : Constant
Bit rate : 256 Kbps
Channel(s) : 2 channels
Sampling rate : 48.0 KHz
Compression mode : Lossy
Stream size : 184 MiB (10%)
Title : MSBHATTI
Language : English

Audio #2
ID : 3
Format : MPEG Audio
Format version : Version 1
Format profile : Layer 3
Codec ID : A_MPEG/L3
Codec ID/Hint : MP3
Duration : 1h 40mn
Bit rate mode : Constant
Bit rate : 256 Kbps
Channel(s) : 2 channels
Sampling rate : 48.0 KHz
Compression mode : Lossy
Stream size : 184 MiB (10%)
Title : MSBHATTI
Language : Hindi

Audio #3
ID : 4
Format : MPEG Audio
Format version : Version 1
Format profile : Layer 3
Codec ID : A_MPEG/L3
Codec ID/Hint : MP3
Duration : 1h 40mn
Bit rate mode : Constant
Bit rate : 256 Kbps
Channel(s) : 2 channels
Sampling rate : 48.0 KHz
Compression mode : Lossy
Stream size : 184 MiB (10%)
Title : MSBHATTI
Language : Thai

SCREENSHOTS:-
 
http://i1215.photobucket.com/albums/cc517/msbhatti/OngBak1.jpg 
http://i1215.photobucket.com/albums/cc517/msbhatti/OngBak2.jpg 
http://i1215.photobucket.com/albums/cc517/msbhatti/OngBak3.jpg 
http://i1215.photobucket.com/albums/cc517/msbhatti/OngBak4.jpg 
http://i1215.photobucket.com/albums/cc517/msbhatti/OngBak5.jpg 
http://i1215.photobucket.com/albums/cc517/msbhatti/OngBak6.jpg

IF U LIKE MY WORK SO COMMENT PLZ

AND SEEEEEEEED PLZZZZZZ AS MUCH AS U CAN PLZZZZZZ

REGARDS

MSBHATTI